<svg width="15" height="16" viewBox="0 0 15 16" fill="none" xmlns="http://www.w3.org/2000/svg">
<g clip-path="url(#clip0_286_607)">
<path d="M14.8719 7.25166L10.3721 2.25193C10.2761 2.14593 10.1421 2.08594 10.0001 2.08594H7.00029C6.90371 2.08604 6.80921 2.11403 6.72815 2.16653C6.64709 2.21904 6.58291 2.29383 6.54332 2.38192C6.46332 2.56291 6.49632 2.7739 6.62831 2.91989L10.8271 7.58564L6.62831 12.2504C6.49632 12.3974 6.46232 12.6084 6.54332 12.7884C6.62431 12.9693 6.8033 13.0853 7.00029 13.0853H10.0001C10.1421 13.0853 10.2761 13.0243 10.3721 12.9204L14.8719 7.92062C15.0429 7.73063 15.0429 7.44065 14.8719 7.25166Z" fill="#143584"/>
<path d="M8.37211 7.25166L3.87235 2.25193C3.77636 2.14593 3.64237 2.08594 3.50037 2.08594H0.500535C0.403954 2.08604 0.309457 2.11403 0.228394 2.16653C0.147331 2.21904 0.0831502 2.29383 0.0435599 2.38192C-0.0364358 2.56291 -0.00343754 2.7739 0.128555 2.91989L4.32733 7.58564L0.128555 12.2504C-0.00343754 12.3974 -0.0374357 12.6084 0.0435599 12.7884C0.124556 12.9693 0.303546 13.0853 0.500535 13.0853H3.50037C3.64237 13.0853 3.77636 13.0243 3.87235 12.9204L8.37211 7.92062C8.5431 7.73063 8.5431 7.44065 8.37211 7.25166Z" fill="#143584"/>
</g>
<defs>
<clipPath id="clip0_286_607">
<rect width="15" height="15" fill="white" transform="translate(0 0.0859375)"/>
</clipPath>
</defs>
</svg>
