<svg width="21" height="20" viewBox="0 0 21 20" fill="none" xmlns="http://www.w3.org/2000/svg">
<path d="M8.57993 11.0395H6.59993C6.27993 11.0395 6.17993 10.9195 6.17993 10.6195V8.19953C6.17993 7.87953 6.29993 7.77953 6.59993 7.77953H8.57993V6.01953C8.57993 5.21953 8.71993 4.45953 9.11993 3.75953C9.53993 3.03953 10.1399 2.55953 10.8999 2.27953C11.3999 2.09953 11.8999 2.01953 12.4399 2.01953H14.3999C14.6799 2.01953 14.7999 2.13953 14.7999 2.41953V4.69953C14.7999 4.97953 14.6799 5.09953 14.3999 5.09953C13.8599 5.09953 13.3199 5.09953 12.7799 5.11953C12.2399 5.11953 11.9599 5.37953 11.9599 5.93953C11.9399 6.53953 11.9599 7.11953 11.9599 7.73953H14.2799C14.5999 7.73953 14.7199 7.85953 14.7199 8.17953V10.5995C14.7199 10.9195 14.6199 11.0195 14.2799 11.0195H11.9599V17.5395C11.9599 17.8795 11.8599 17.9995 11.4999 17.9995H8.99993C8.69993 17.9995 8.57993 17.8795 8.57993 17.5795V11.0395Z" fill="#143584"/>
</svg>
