<svg width="16" height="16" viewBox="0 0 16 16" fill="none" xmlns="http://www.w3.org/2000/svg">
<path fill-rule="evenodd" clip-rule="evenodd" d="M15.6945 0.306102C15.8899 0.501907 15.9997 0.76733 15.9997 1.04407C15.9997 1.32081 15.8899 1.58623 15.6945 1.78203L9.47605 8.00601L15.6959 14.23C15.8859 14.427 15.991 14.6909 15.9885 14.9647C15.986 15.2385 15.8761 15.5004 15.6825 15.6939C15.4889 15.8874 15.2271 15.9971 14.9535 15.9994C14.6799 16.0016 14.4163 15.8962 14.2196 15.7059L7.26223 8.74397C7.0668 8.54817 6.95703 8.28275 6.95703 8.00601C6.95703 7.72927 7.0668 7.46385 7.26223 7.26804L14.2196 0.306102C14.3165 0.20906 14.4315 0.132078 14.5582 0.0795559C14.6849 0.0270335 14.8206 0 14.9577 0C15.0948 0 15.2306 0.0270335 15.3573 0.0795559C15.4839 0.132078 15.599 0.20906 15.6959 0.306102H15.6945Z" fill="#143584"/>
<path fill-rule="evenodd" clip-rule="evenodd" d="M8.73748 0.306102C8.93291 0.501907 9.04268 0.76733 9.04268 1.04407C9.04268 1.32081 8.93291 1.58623 8.73748 1.78203L2.51902 8.00601L8.73887 14.23C8.92888 14.427 9.03394 14.6909 9.03144 14.9647C9.02893 15.2385 8.91905 15.5004 8.72547 15.6939C8.53189 15.8874 8.27009 15.9971 7.99646 15.9994C7.72283 16.0016 7.45926 15.8962 7.26252 15.7059L0.305204 8.74397C0.109772 8.54817 0 8.28275 0 8.00601C0 7.72927 0.109772 7.46385 0.305204 7.26804L7.26252 0.306102C7.35944 0.20906 7.47452 0.132078 7.60117 0.0795559C7.72783 0.0270335 7.86359 0 8.0007 0C8.1378 0 8.27356 0.0270335 8.40022 0.0795559C8.52688 0.132078 8.64195 0.20906 8.73887 0.306102H8.73748Z" fill="#143584"/>
</svg>
