<svg width="16" height="16" viewBox="0 0 16 16" fill="none" xmlns="http://www.w3.org/2000/svg">
<path fill-rule="evenodd" clip-rule="evenodd" d="M0.305492 0.306102C0.110061 0.501907 0.00028801 0.76733 0.00028801 1.04407C0.00028801 1.32081 0.110061 1.58623 0.305492 1.78203L6.52395 8.00601L0.3041 14.23C0.114091 14.427 0.00902462 14.6909 0.0115299 14.9647C0.0140362 15.2385 0.123914 15.5004 0.317497 15.6939C0.511081 15.8874 0.772882 15.9971 1.04651 15.9994C1.32014 16.0016 1.58371 15.8962 1.78044 15.7059L8.73777 8.74397C8.9332 8.54817 9.04297 8.28275 9.04297 8.00601C9.04297 7.72927 8.9332 7.46385 8.73777 7.26804L1.78044 0.306102C1.68353 0.20906 1.56845 0.132078 1.44179 0.0795559C1.31514 0.0270335 1.17938 0 1.04227 0C0.905169 0 0.769409 0.0270335 0.64275 0.0795559C0.516091 0.132078 0.401016 0.20906 0.3041 0.306102H0.305492Z" fill="#143584"/>
<path fill-rule="evenodd" clip-rule="evenodd" d="M7.26252 0.306102C7.06709 0.501907 6.95732 0.76733 6.95732 1.04407C6.95732 1.32081 7.06709 1.58623 7.26252 1.78203L13.481 8.00601L7.26113 14.23C7.07112 14.427 6.96606 14.6909 6.96856 14.9647C6.97107 15.2385 7.08095 15.5004 7.27453 15.6939C7.46811 15.8874 7.72991 15.9971 8.00354 15.9994C8.27717 16.0016 8.54074 15.8962 8.73748 15.7059L15.6948 8.74397C15.8902 8.54817 16 8.28275 16 8.00601C16 7.72927 15.8902 7.46385 15.6948 7.26804L8.73748 0.306102C8.64056 0.20906 8.52548 0.132078 8.39883 0.0795559C8.27217 0.0270335 8.13641 0 7.9993 0C7.8622 0 7.72644 0.0270335 7.59978 0.0795559C7.47312 0.132078 7.35805 0.20906 7.26113 0.306102H7.26252Z" fill="#143584"/>
</svg>
