<svg width="129" height="129" viewBox="0 0 129 129" fill="none" xmlns="http://www.w3.org/2000/svg">
<g filter="url(#filter0_d_1904_370)">
<rect x="21" y="21" width="87" height="87" rx="9" fill="white"/>
</g>
<path d="M75.6718 38.3887C73.3332 38.3887 71.2577 39.558 70.0202 41.3509C69.3673 42.2929 70.7802 43.2706 71.4331 42.3254C71.9058 41.6381 72.5388 41.0764 73.2773 40.6887C74.0159 40.3011 74.8377 40.0991 75.6718 40.1004C78.5302 40.1004 80.8298 42.4001 80.8298 45.2584C80.8578 45.9343 81.1388 46.575 81.6171 47.0533C82.0955 47.5317 82.7362 47.8127 83.4121 47.8406C86.2704 47.8406 88.5603 50.1338 88.5603 52.9921C88.5603 55.8504 86.2671 58.1501 83.4121 58.1501C82.0706 58.1501 80.9435 57.7051 79.7417 57.4388C77.9845 57.049 76.8866 57.4388 75.9252 58.4034L70.5204 63.8083V62.4506C70.5208 62.337 70.4987 62.2244 70.4555 62.1194C70.4122 62.0144 70.3486 61.919 70.2683 61.8387C70.1879 61.7584 70.0925 61.6947 69.9875 61.6515C69.8825 61.6082 69.77 61.5861 69.6564 61.5866H67.0806V59.0108C67.0806 58.8975 67.0583 58.7853 67.0148 58.6807C66.9713 58.576 66.9076 58.481 66.8274 58.401C66.7471 58.3211 66.6518 58.2577 66.547 58.2147C66.4422 58.1716 66.3299 58.1497 66.2166 58.1501H64.8589L70.267 52.7453C71.5175 51.4947 71.4948 50.3254 71.2284 48.919C71.0011 47.714 70.5204 46.5966 70.5204 45.2584C70.5463 44.0891 68.7761 44.0891 68.7989 45.2584C68.7989 46.9636 69.2926 48.3116 69.5459 49.2925C69.7993 50.2605 69.6531 50.9166 69.049 51.5272L62.1728 58.4034C62.0553 58.5239 61.9756 58.6762 61.9438 58.8415C61.9119 59.0067 61.9292 59.1777 61.9935 59.3332C62.0578 59.4887 62.1662 59.622 62.3055 59.7166C62.4447 59.8111 62.6086 59.8627 62.7769 59.8651H65.3591V62.4506C65.3591 62.9215 65.7424 63.3048 66.2134 63.3081H68.7956V65.8806C68.7956 66.6471 69.7181 67.0304 70.2605 66.4912L77.14 59.6215C77.8383 58.9231 78.475 58.9296 79.3649 59.118C80.3653 59.3324 81.7036 59.8651 83.4088 59.8651C85.23 59.8608 86.9754 59.1352 88.2628 57.8471C89.5503 56.559 90.2751 54.8133 90.2785 52.9921C90.2785 49.2048 87.1928 46.1224 83.4088 46.1224C82.9216 46.0899 82.5546 45.5377 82.5448 45.2584C82.5405 43.4372 81.8149 41.6918 80.5268 40.4044C79.2387 39.1169 77.4931 38.3921 75.6718 38.3887ZM60.2044 46.9766V52.9921C60.1784 54.1614 61.9486 54.1614 61.9227 52.9921V46.9766C61.9227 45.8431 60.2044 45.8073 60.2044 46.9766ZM50.9993 51.8813L55.2998 56.1817C56.1118 57.0587 57.3948 55.7725 56.5113 54.9637L52.2173 50.6697C51.3923 49.8447 50.197 51.0822 50.9993 51.8813ZM47.3127 59.8683C46.1434 59.8423 46.1434 61.6126 47.3127 61.5866H53.3282C54.4975 61.5866 54.4488 59.8651 53.3282 59.8651L47.3127 59.8683ZM57.8755 62.6974L51.8601 68.7194C51.1032 69.4794 50.4049 69.369 49.6286 69.2131C48.6022 69.0052 47.2997 68.466 45.5945 68.466C43.7721 68.4703 42.0256 69.1962 40.737 70.4848C39.4484 71.7734 38.7226 73.5199 38.7183 75.3423C38.7226 77.164 39.4486 78.9099 40.7374 80.1974C42.0262 81.485 43.7727 82.2094 45.5945 82.212C45.8122 82.2418 46.0139 82.3426 46.1684 82.4988C46.3229 82.6551 46.4214 82.858 46.4487 83.076C46.4482 84.5387 46.9144 85.9634 47.7794 87.1428C48.6444 88.3223 49.8632 89.1951 51.2584 89.6342C52.6536 90.0733 54.1525 90.0559 55.5371 89.5844C56.9218 89.1129 58.1198 88.212 58.9571 87.0127C59.7172 86.061 58.2003 84.9923 57.5605 86.022C56.934 86.9252 56.0352 87.6044 54.9954 87.9606C53.9555 88.3168 52.829 88.3313 51.7803 88.0019C50.7317 87.6726 49.8157 87.0166 49.1663 86.1298C48.5168 85.2431 48.1678 84.1719 48.1702 83.0727C48.1507 81.6111 46.871 80.51 45.5945 80.4872C42.7362 80.4872 40.4365 78.1973 40.4365 75.339C40.4365 72.4807 42.7362 70.181 45.5945 70.181C46.9327 70.181 48.0565 70.626 49.2551 70.8924C51.035 71.2821 52.1134 70.8924 53.0813 69.9277L58.8402 64.1656H61.0619V66.7413C61.0619 67.2155 61.4517 67.5988 61.9227 67.5988H64.4984V69.8237L58.7395 75.5859C57.6027 76.7227 57.4273 77.8855 57.7748 79.4121C58.0477 80.6074 58.4862 81.7313 58.4862 83.0727C58.4569 84.242 60.2304 84.242 60.2044 83.0727C60.2044 81.3642 59.6847 80.0195 59.4476 79.0353C59.1715 77.8985 59.4151 77.3398 59.9511 76.8039L65.9698 70.7884C66.129 70.6265 66.2177 70.4081 66.2166 70.181V66.7445C66.2175 66.5168 66.1281 66.298 65.968 66.1361C65.8079 65.9742 65.5901 65.8823 65.3624 65.8806H62.7802V63.3081C62.7793 63.0809 62.6887 62.8633 62.5281 62.7027C62.3674 62.542 62.1498 62.4514 61.9227 62.4506H58.4374C58.2252 62.4608 58.0273 62.5487 57.8755 62.6974ZM81.6906 68.466C82.8371 68.466 82.8371 66.7445 81.6906 66.7445H75.6296C74.4408 66.7998 74.5253 68.5213 75.6718 68.466H81.6906ZM72.4855 73.3707L76.7794 77.6646C77.5882 78.5091 78.8387 77.2651 77.9975 76.4499L73.7035 72.1494C72.898 71.3438 71.6539 72.5391 72.4855 73.3674V73.3707ZM67.0806 75.3423V81.3545C67.0806 82.5043 68.8021 82.5043 68.8021 81.3545V75.3423C68.8021 74.1535 67.0806 74.2152 67.0806 75.3423Z" fill="#143584"/>
<defs>
<filter id="filter0_d_1904_370" x="0" y="0" width="129" height="129" filterUnits="userSpaceOnUse" color-interpolation-filters="sRGB">
<feFlood flood-opacity="0" result="BackgroundImageFix"/>
<feColorMatrix in="SourceAlpha" type="matrix" values="0 0 0 0 0 0 0 0 0 0 0 0 0 0 0 0 0 0 127 0" result="hardAlpha"/>
<feOffset/>
<feGaussianBlur stdDeviation="10.5"/>
<feComposite in2="hardAlpha" operator="out"/>
<feColorMatrix type="matrix" values="0 0 0 0 0 0 0 0 0 0 0 0 0 0 0 0 0 0 0.08 0"/>
<feBlend mode="normal" in2="BackgroundImageFix" result="effect1_dropShadow_1904_370"/>
<feBlend mode="normal" in="SourceGraphic" in2="effect1_dropShadow_1904_370" result="shape"/>
</filter>
</defs>
</svg>
