<svg width="14" height="14" viewBox="0 0 14 14" fill="none" xmlns="http://www.w3.org/2000/svg">
<path fill-rule="evenodd" clip-rule="evenodd" d="M0.341016 0.77857C0.18301 0.936773 0.0942583 1.15123 0.0942583 1.37482C0.0942583 1.59841 0.18301 1.81287 0.341016 1.97107L5.36864 6.99982L0.33989 12.0286C0.186268 12.1878 0.101322 12.4009 0.103348 12.6222C0.105374 12.8434 0.19421 13.055 0.350722 13.2114C0.507235 13.3677 0.718901 13.4564 0.940132 13.4582C1.16136 13.46 1.37446 13.3748 1.53352 13.2211L7.15852 7.59607C7.31652 7.43787 7.40527 7.22341 7.40527 6.99982C7.40527 6.77623 7.31652 6.56177 7.15852 6.40357L1.53352 0.77857C1.45516 0.700163 1.36212 0.637965 1.25972 0.595528C1.15731 0.553092 1.04755 0.53125 0.936704 0.53125C0.825855 0.53125 0.716093 0.553092 0.613689 0.595528C0.511286 0.637965 0.418247 0.700163 0.33989 0.77857H0.341016Z" fill="white"/>
<path fill-rule="evenodd" clip-rule="evenodd" d="M5.96602 0.77857C5.80801 0.936773 5.71926 1.15123 5.71926 1.37482C5.71926 1.59841 5.80801 1.81287 5.96602 1.97107L10.9936 6.99982L5.96489 12.0286C5.81127 12.1878 5.72632 12.4009 5.72835 12.6222C5.73037 12.8434 5.81921 13.055 5.97572 13.2114C6.13224 13.3677 6.3439 13.4564 6.56513 13.4582C6.78636 13.46 6.99946 13.3748 7.15852 13.2211L12.7835 7.59607C12.9415 7.43787 13.0303 7.22341 13.0303 6.99982C13.0303 6.77623 12.9415 6.56177 12.7835 6.40357L7.15852 0.77857C7.08016 0.700163 6.98712 0.637965 6.88472 0.595528C6.78231 0.553092 6.67255 0.53125 6.5617 0.53125C6.45085 0.53125 6.34109 0.553092 6.23869 0.595528C6.13629 0.637965 6.04325 0.700163 5.96489 0.77857H5.96602Z" fill="white"/>
</svg>
